# xmcd
#
# Track frame offsets:
#	150
#	13560
#	28496
#	47100
#	62608
#	80855
#	94032
#	105812
#	123756
#	136835
#	152790
#	171850
#	188309
#	205228
#	221528
#	234609
#	246181
#	261542
#	276743
#	287216
#
# Disc length: 4020 seconds
#
# Revision: 0
# Processed by: cddbd v1.5.2PL0 Copyright (c) Steve Scherf et al.
# Submitted via: dBpowerAMP V4.0
#
DISCID=240fb214
DTITLE=KAPÚ DE FUSCA (AO VIVO) - KAPÚ DE FUSCA (AO VIVO)
DYEAR=2007
DGENRE=ARROCHA
TTITLE0=RENATA
TTITLE1=PAIXÃO PROIBIDA
TTITLE2=CORAÇÃO DE PEDRA
TTITLE3=SEM MEDO DE SER FELIZ
TTITLE4=COVARDE TRAIDOR
TTITLE5=NINJAS DO ARROCHA
TTITLE6=ARROCHA
TTITLE7=ENCOSTA MEU
TTITLE8=NÃO VOU MAIS CHORAR
TTITLE9=PORQUE
TTITLE10=I LOVE YOU
TTITLE11=GARANHÃO DA MADRUGADA
TTITLE12=A PRAIA
TTITLE13=PORQUÊ CHORAS
TTITLE14=TÁ LIBERADO
TTITLE15=JUMENTO
TTITLE16=SÓ ALEGRIA
TTITLE17=SANTO ANTÔNIO
TTITLE18=PRETA
TTITLE19=DANCE COM BEBÊ
EXTD=TOCANDO E BEBENDO
EXTT0=
EXTT1=
EXTT2=
EXTT3=
EXTT4=
EXTT5=
EXTT6=
EXTT7=
EXTT8=
EXTT9=
EXTT10=
EXTT11=
EXTT12=
EXTT13=
EXTT14=
EXTT15=
EXTT16=
EXTT17=
EXTT18=
EXTT19=
PLAYORDER=
